<svg fill="none" xmlns="http://www.w3.org/2000/svg" viewBox="0 0 108 108">
<g filter="url(#a)"><path d="M101.999 49.69a50.53 50.53 0 0 0-8.178-26.96A50.1 50.1 0 0 0 72.515 4.429 49.73 49.73 0 0 0 44.768.53a49.86 49.86 0 0 0-25.475 11.728A50.34 50.34 0 0 0 4.086 35.931a50.6 50.6 0 0 0-.166 28.187A50.35 50.35 0 0 0 18.85 87.97 49.87 49.87 0 0 0 44.185 100V64.343h-12.5V49.691h12.5V38.56c-.29-2.588-.01-5.209.817-7.677a17.8 17.8 0 0 1 3.971-6.606 17.7 17.7 0 0 1 6.378-4.292 17.6 17.6 0 0 1 7.584-1.171c3.75.051 7.49.387 11.188 1.006v12.577h-6.25a7.2 7.2 0 0 0-3.203.318 7.24 7.24 0 0 0-2.75 1.681 7.3 7.3 0 0 0-1.756 2.714 7.3 7.3 0 0 0-.416 3.21v9.496h13.875l-2.25 14.653H59.81v35.217a49.93 49.93 0 0 0 30.304-17.13A50.5 50.5 0 0 0 102 49.69" fill="#fff"/>
</g>
<defs>
<filter id="a" x="0" y="0" width="108" height="108" filterUnits="userSpaceOnUse" color-interpolation-filters="sRGB">
<feFlood flood-opacity="0" result="BackgroundImageFix"/><feColorMatrix in="SourceAlpha" values="0 0 0 0 0 0 0 0 0 0 0 0 0 0 0 0 0 0 127 0" result="hardAlpha"/>
<feOffset dx="2" dy="4"/><feGaussianBlur stdDeviation="2"/><feColorMatrix values="0 0 0 0 0 0 0 0 0 0 0 0 0 0 0 0 0 0 0.25 0"/>
<feBlend in2="BackgroundImageFix" result="effect1_dropShadow_423_86"/><feBlend in="SourceGraphic" in2="effect1_dropShadow_423_86" result="shape"/>
</filter>
</defs>
</svg>
