<svg width="540" height="98" viewBox="0 0 540 98" fill="none" xmlns="http://www.w3.org/2000/svg">
<path d="M50 0L61.2257 33.8582L97.5528 33.8582L68.1636 54.7837L79.3893 88.6418L50 67.7163L20.6107 88.6418L31.8364 54.7837L2.44717 33.8582L38.7743 33.8582L50 0Z" fill="white"/>
<path d="M160 0L171.226 33.8582L207.553 33.8582L178.164 54.7837L189.389 88.6418L160 67.7163L130.611 88.6418L141.836 54.7837L112.447 33.8582L148.774 33.8582L160 0Z" fill="white"/>
<path d="M270 0L281.226 33.8582L317.553 33.8582L288.164 54.7837L299.389 88.6418L270 67.7163L240.611 88.6418L251.836 54.7837L222.447 33.8582L258.774 33.8582L270 0Z" fill="white"/>
<path d="M380 0L391.226 33.8582L427.553 33.8582L398.164 54.7837L409.389 88.6418L380 67.7163L350.611 88.6418L361.836 54.7837L332.447 33.8582L368.774 33.8582L380 0Z" fill="white"/>
<path d="M490 0L501.226 33.8582L537.553 33.8582L508.164 54.7837L519.389 88.6418L490 67.7163L460.611 88.6418L471.836 54.7837L442.447 33.8582L478.774 33.8582L490 0Z" fill="white"/>
</svg>
