<svg width="100" height="100" viewBox="0 0 100 100" fill="none" xmlns="http://www.w3.org/2000/svg">
<path d="M43.3398 59.6289L59.707 50.0195L43.3398 40.4102V59.6289Z" fill="white"/>
<path d="M50 0C22.3828 0 0 22.3828 0 50C0 77.6172 22.3828 100 50 100C77.6172 100 100 77.6172 100 50C100 22.3828 77.6172 0 50 0ZM75 58.9453C75 67.5586 66.3867 67.5586 66.3867 67.5586H33.6133C25 67.5586 25 58.9453 25 58.9453V41.0742C25 32.4609 33.6133 32.4609 33.6133 32.4609H66.3867C75 32.4609 75 41.0742 75 41.0742V58.9453Z" fill="white"/>
</svg>
